<?xml version="1.0" encoding="utf-8"?>
<svg version="1.1" id="Capa_1" x="0px" y="0px" viewBox="0 0 464 464" style="enable-background:new 0 0 464 464;" xmlns="http://www.w3.org/2000/svg" xmlns:bx="https://boxy-svg.com">
  <path style="fill: rgb(255, 193, 15);" d="M360,295.992c-0.16-17.52-14.4-32-32-32h-18.72c-8.48,0-16.64-3.2-22.64-9.2l-6.56-6.56l-0.16-0.16&#10;&#9;L232,264.232l-47.92-16.24l-0.08,0.08l-6.64,6.64c-6,6-14.16,9.28-22.64,9.28H136c-17.6,0-31.84,14.48-32,32v82.72&#10;&#9;c0,8.48,3.36,16.64,9.36,22.64l22.64,22.64h192l22.64-22.64c6-6,9.36-14.16,9.36-22.64V295.992z"/>
  <g>
    <path style="fill: rgb(255, 255, 255);" d="M 435.936 386.016 L 419.056 383.992 L 347.312 383.992 L 356.28 375.024 C 363.832 367.472 368 357.424 368 346.736 L 368 263.992 C 368 263.872 367.936 263.76 367.928 263.648 C 367.56 241.736 349.824 223.992 328 223.992 L 309.256 223.992 C 302.72 223.992 296.696 221.56 292.28 217.136 L 274.312 199.176 C 267.075 194.23 195.533 193.208 189.744 199.2 L 171.712 217.144 C 167.304 221.56 161.28 223.992 154.744 223.992 L 136 223.992 C 114.24 223.992 96.568 241.632 96.088 263.544 C 96.08 263.704 96 263.84 96 263.992 L 96 346.736 C 96 357.424 100.168 367.472 107.72 375.024 L 116.688 383.992 L 44.944 383.992 L 22.312 338.728 C 18.944 332.008 18.944 323.976 22.312 317.256 L 46.056 269.768 C 49.096 271.16 52.44 271.992 56 271.992 C 69.232 271.992 80 261.224 80 247.992 C 80 234.76 69.232 223.992 56 223.992 C 42.768 223.992 32 234.76 32 247.992 C 32 251.496 32.792 254.8 34.144 257.8 L 8 310.104 C 2.4 321.304 2.4 334.68 8 345.888 L 28.064 386.016 C 11.864 391.128 0 406.12 0 423.992 L 0 455.992 C 0 460.416 3.576 463.992 8 463.992 L 456 463.992 C 460.424 463.992 464 460.416 464 455.992 L 464 423.992 C 464 406.12 452.136 391.128 435.936 386.016 Z M 56 239.992 C 60.416 239.992 64 243.576 64 247.992 C 64 252.408 60.416 255.992 56 255.992 C 51.584 255.992 48 252.408 48 247.992 C 48 243.576 51.584 239.992 56 239.992 Z M 232 208.272 C 240.896 208.272 260.814 211.979 269.062 209.867 C 269.286 210.163 264.443 208.392 262.591 206.532 L 205.64 205.944 C 205.944 205.648 199.347 210.211 199.595 209.883 C 207.827 211.987 223.12 208.272 232 208.272 Z M 119.032 363.712 C 114.496 359.176 112 353.152 112 346.736 L 112 264.344 C 112 250.92 122.768 239.992 136 239.992 L 154.744 239.992 C 165.568 239.992 175.616 235.888 183.016 228.464 L 195.64 215.848 L 269.108 216.942 L 283.445 230.917 C 290.861 238.365 298.44 239.992 309.256 239.992 L 328 239.992 C 341.232 239.992 352 250.92 352 264.336 L 352 264.536 L 352 346.728 C 352 353.144 349.496 359.176 344.968 363.704 L 324.688 383.992 L 304 383.992 L 304 295.992 C 304 291.568 300.424 287.992 296 287.992 C 291.576 287.992 288 291.568 288 295.992 L 288 383.992 L 176 383.992 L 176 295.992 C 176 291.568 172.424 287.992 168 287.992 C 163.576 287.992 160 291.568 160 295.992 L 160 383.992 L 139.312 383.992 L 119.032 363.712 Z M 448 447.992 L 16 447.992 L 16 423.992 C 16 410.76 26.768 399.992 40 399.992 L 424 399.992 C 437.232 399.992 448 410.76 448 423.992 L 448 447.992 Z"/>
    <path style="fill: rgb(255, 255, 255);" d="M 104 415.992 L 40 415.992 C 35.576 415.992 32 419.568 32 423.992 C 32 428.416 35.576 431.992 40 431.992 L 104 431.992 C 108.424 431.992 112 428.416 112 423.992 C 112 419.568 108.424 415.992 104 415.992 Z"/>
    <path style="fill: rgb(255, 255, 255);" d="M 424 415.992 L 360 415.992 C 355.576 415.992 352 419.568 352 423.992 C 352 428.416 355.576 431.992 360 431.992 L 424 431.992 C 428.424 431.992 432 428.416 432 423.992 C 432 419.568 428.424 415.992 424 415.992 Z"/>
    <path style="fill: rgb(216, 216, 216); stroke: rgb(0, 0, 0);"/>
    <path style="fill: rgb(216, 216, 216); stroke: rgb(0, 0, 0);" d="M 230.053 44.949"/>
    <path d="M 620.5 395.5 m -0.177 0 a 0.177 0.177 0 1 0 0.354 0 a 0.177 0.177 0 1 0 -0.354 0 Z M 620.5 395.5 m -0.106 0 a 0.106 0.106 0 0 1 0.212 0 a 0.106 0.106 0 0 1 -0.212 0 Z" style="fill: rgb(216, 216, 216);" transform="matrix(1.000086, 0, 0, 0.999957, -421.468839, -293.020708)" bx:shape="ring 620.5 395.5 0.106 0.106 0.177 0.177 1@7d28fea2"/>
    <path d="M 232.686 113.818 m -100 0 a 100 99.693 0 1 0 200 0 a 100 99.693 0 1 0 -200 0 Z M 232.686 113.818 m -80.692 0 a 80.692 80.803 0 0 1 161.384 0 a 80.692 80.803 0 0 1 -161.384 0 Z" style="fill: rgb(255, 255, 255);" bx:shape="ring 232.686 113.818 80.692 80.803 100 99.693 1@2782d773" bx:origin="-2.771 0.5"/>
    <path style="fill: rgb(216, 216, 216); stroke: rgb(0, 0, 0);" d="M 174.487 32.207"/>
  </g>
  <g/>
  <g/>
  <g/>
  <g/>
  <g/>
  <g/>
  <g/>
  <g/>
  <g/>
  <g/>
  <g/>
  <g/>
  <g/>
  <g/>
  <g/>
</svg>