<?xml version="1.0" encoding="utf-8"?>
<svg version="1.1" id="Layer_1" x="0px" y="0px" viewBox="0 0 512 512" style="enable-background:new 0 0 512 512;" xmlns="http://www.w3.org/2000/svg">
  <path d="M 75.461 41.652 L 400.461 41.652 L 400.461 265.34 C 400.461 265.34 393.968 266.652 384.806 266.652 C 385.008 266.594 390.778 229.365 378.048 240.1 C 365.575 218.113 349.935 225.078 332.652 225.078 C 325.297 225.078 325.217 221.742 319.864 226.189 C 315.032 214.606 303.191 209.863 290.342 209.863 C 282.984 209.863 277.115 213.792 271.765 218.24 C 266.932 206.657 253.001 195.961 240.152 195.961 C 233.939 195.961 224.21 201.802 219.334 205.07 L 218.653 121.36 C 218.653 103.312 201.333 104.551 184.05 104.551 C 166.768 104.551 156.646 126.452 156.646 144.5 L 156.646 263.736 C 155.014 264.141 153.431 264.679 151.906 265.34 L 75.461 265.34 L 75.461 41.652 Z" style="stroke-linejoin: round; stroke-width: 15; stroke-linecap: round; stroke: rgb(255, 195, 15); fill: rgb(255, 193, 15);"/>
  <g transform="matrix(0.917709, 0, 0, 0.959281, 115.274689, 181.093948)" style="">
    <g transform="matrix(1, 0, 0, 1, -106.172989, -169.46843)"/>
  </g>
  <g>
    <g>
      <path d="M471.149,0H40.851C18.325,0,0,18.325,0,40.851v261.447c0,22.526,18.325,40.851,40.851,40.851h62.638&#10;&#9;&#9;&#9;c4.512,0,8.17-3.657,8.17-8.17c0-4.513-3.658-8.17-8.17-8.17H40.851c-13.516,0-24.511-10.996-24.511-24.511V40.851&#10;&#9;&#9;&#9;c0-13.515,10.995-24.511,24.511-24.511h430.298c13.516,0,24.511,10.996,24.511,24.511v261.447&#10;&#9;&#9;&#9;c0,13.515-10.995,24.511-24.511,24.511h-57.191c-4.512,0-8.17,3.657-8.17,8.17c0,4.513,3.658,8.17,8.17,8.17h57.191&#10;&#9;&#9;&#9;c22.526,0,40.851-18.325,40.851-40.851V40.851C512,18.325,493.675,0,471.149,0z" style="fill: rgb(255, 255, 255);"/>
    </g>
  </g>
  <g>
    <g>
      <path d="M438.468,32.681H73.532c-4.512,0-8.17,3.657-8.17,8.17v261.447c0,4.513,3.658,8.17,8.17,8.17h29.957&#10;&#9;&#9;&#9;c4.512,0,8.17-3.657,8.17-8.17c0-4.513-3.658-8.17-8.17-8.17H81.702V49.021h348.596v245.106h-16.34c-4.512,0-8.17,3.657-8.17,8.17&#10;&#9;&#9;&#9;c0,4.513,3.658,8.17,8.17,8.17h24.511c4.512,0,8.17-3.657,8.17-8.17V40.851C446.638,36.338,442.98,32.681,438.468,32.681z" style="fill: rgb(255, 255, 255);"/>
    </g>
  </g>
  <g>
    <g>
      <circle cx="40.851" cy="171.574" r="8.17" style="fill: rgb(255, 255, 255);"/>
    </g>
  </g>
  <g transform="matrix(1, 0, 0, 1, -0.680596, -3.40298)">
    <g>
      <path d="M 354.043 226.043 C 345.734 226.043 338.091 228.927 332.046 233.737 C 326.587 221.209 314.09 212.426 299.575 212.426 C 291.266 212.426 283.623 215.31 277.578 220.12 C 272.119 207.592 259.622 198.809 245.107 198.809 C 238.09 198.809 231.551 200.869 226.043 204.404 L 226.043 138.894 C 226.043 119.372 210.16 103.49 190.639 103.49 C 171.118 103.49 155.235 119.372 155.235 138.894 L 155.235 267.856 C 139.64 271.555 128 285.587 128 302.298 L 128 343.149 C 128 385.504 148.785 424.995 182.468 449.294 L 198.808 459.343 C 200.361 460.146 201.93 460.927 203.524 461.67 C 204.642 462.192 205.816 462.438 206.973 462.438 C 210.049 462.438 212.996 460.691 214.383 457.72 C 216.29 453.631 214.521 448.769 210.433 446.861 C 170.282 428.132 144.34 387.422 144.34 343.149 L 144.34 302.298 C 144.34 294.713 148.804 288.167 155.234 285.1 L 155.234 334.979 C 155.234 339.492 158.892 343.149 163.404 343.149 C 167.916 343.149 171.574 339.492 171.574 334.979 L 171.574 138.894 C 171.574 128.383 180.127 119.83 190.638 119.83 C 201.149 119.83 209.702 128.383 209.702 138.894 L 209.702 275.517 C 209.702 280.03 213.36 283.687 217.872 283.687 C 222.384 283.687 226.042 280.03 226.042 275.517 L 226.042 234.213 C 226.042 223.702 234.595 215.149 245.106 215.149 C 255.617 215.149 264.17 223.702 264.17 234.213 L 264.17 275.064 C 264.17 279.577 267.828 283.234 272.34 283.234 C 276.852 283.234 280.51 279.577 280.51 275.064 L 280.51 247.83 C 280.51 237.319 289.063 228.766 299.574 228.766 C 310.085 228.766 318.638 237.319 318.638 247.83 L 318.638 275.064 C 318.638 279.577 322.296 283.234 326.808 283.234 C 331.32 283.234 334.978 279.577 334.978 275.064 L 334.978 261.447 C 334.978 250.936 343.531 242.383 354.042 242.383 C 364.553 242.383 373.106 250.936 373.106 261.447 L 373.106 343.149 C 373.106 387.422 347.164 428.131 307.013 446.861 C 302.925 448.768 301.156 453.63 303.063 457.72 C 304.45 460.693 307.396 462.438 310.473 462.438 C 311.63 462.438 312.804 462.191 313.922 461.67 C 315.516 460.926 317.084 460.146 318.638 459.343 L 334.978 449.294 C 368.661 424.995 389.446 385.504 389.446 343.149 L 389.446 261.447 C 389.447 241.924 373.564 226.043 354.043 226.043 Z" style="fill: rgb(255, 255, 255);"/>
    </g>
  </g>
  <g/>
  <g/>
  <g/>
  <g/>
  <g/>
  <g/>
  <g/>
  <g/>
  <g/>
  <g/>
  <g/>
  <g/>
  <g/>
  <g/>
  <g/>
  <path style="fill: rgb(216, 216, 216); stroke: rgb(0, 0, 0);" d="M 387.855 113.114"/>
  <path style="fill: rgb(216, 216, 216); stroke: rgb(0, 0, 0);" d="M 707.055 283.263"/>
  <path style="fill: rgb(216, 216, 216); stroke: rgb(0, 0, 0);" d="M 774.434 36.887"/>
</svg>